<?xml version="1.0" encoding="UTF-8" standalone="no"?>
<svg
   xmlns:osb="http://www.openswatchbook.org/uri/2009/osb"
   xmlns:dc="http://purl.org/dc/elements/1.1/"
   xmlns:cc="http://creativecommons.org/ns#"
   xmlns:rdf="http://www.w3.org/1999/02/22-rdf-syntax-ns#"
   xmlns:svg="http://www.w3.org/2000/svg"
   xmlns="http://www.w3.org/2000/svg"
   xmlns:sodipodi="http://sodipodi.sourceforge.net/DTD/sodipodi-0.dtd"
   xmlns:inkscape="http://www.inkscape.org/namespaces/inkscape"
   width="110px"
   height="110px"
   viewBox="0 0 110 110"
   version="1.1"
   id="svg22"
   sodipodi:docname="icon.svg"
   inkscape:version="1.0.1 (3bc2e813f5, 2020-09-07)">
  <metadata
     id="metadata26">
    <rdf:RDF>
      <cc:Work
         rdf:about="">
        <dc:format>image/svg+xml</dc:format>
        <dc:type
           rdf:resource="http://purl.org/dc/dcmitype/StillImage" />
      </cc:Work>
    </rdf:RDF>
  </metadata>
  <sodipodi:namedview
     pagecolor="#ffffff"
     bordercolor="#666666"
     borderopacity="1"
     objecttolerance="10"
     gridtolerance="10"
     guidetolerance="10"
     inkscape:pageopacity="0"
     inkscape:pageshadow="2"
     inkscape:window-width="884"
     inkscape:window-height="717"
     id="namedview24"
     showgrid="false"
     inkscape:snap-global="true"
     inkscape:snap-bbox="true"
     inkscape:bbox-nodes="true"
     inkscape:snap-bbox-midpoints="true"
     inkscape:snap-bbox-edge-midpoints="true"
     inkscape:bbox-paths="true"
     inkscape:document-rotation="0"
     inkscape:zoom="1.2977273"
     inkscape:cx="45.103576"
     inkscape:cy="81.929954"
     inkscape:window-x="8"
     inkscape:window-y="41"
     inkscape:window-maximized="0"
     inkscape:current-layer="svg22" />
  <defs
     id="defs2">
    <inkscape:path-effect
       effect="powerclip"
       id="path-effect1117"
       is_visible="true"
       lpeversion="1"
       inverse="true"
       flatten="false"
       hide_clip="false"
       message="Use fill-rule evenodd on &lt;b&gt;fill and stroke&lt;/b&gt; dialog if no flatten result after convert clip to paths." />
    <inkscape:path-effect
       effect="powerclip"
       id="path-effect4" />
    <inkscape:path-effect
       effect="powerclip"
       id="path-effect1698"
       is_visible="true"
       lpeversion="1"
       inverse="true"
       flatten="false"
       hide_clip="false"
       message="Use fill-rule evenodd on &lt;b&gt;fill and stroke&lt;/b&gt; dialog if no flatten result after convert clip to paths." />
    <inkscape:path-effect
       effect="powerclip"
       id="path-effect1619"
       is_visible="true"
       lpeversion="1"
       inverse="true"
       flatten="false"
       hide_clip="false"
       message="Use fill-rule evenodd on &lt;b&gt;fill and stroke&lt;/b&gt; dialog if no flatten result after convert clip to paths." />
    <linearGradient
       id="linearGradient1587"
       osb:paint="solid">
      <stop
         style="stop-color:#000000;stop-opacity:1;"
         offset="0"
         id="stop1585" />
    </linearGradient>
    <clipPath
       clipPathUnits="userSpaceOnUse"
       id="clipPath1364">
      <g
         inkscape:label="Clip"
         id="use1366">
        <path
           style="fill:none;stroke:#000000;stroke-width:0.926939px;stroke-linecap:butt;stroke-linejoin:miter;stroke-opacity:1"
           d="m 68.113211,59.658716 h 3.019365 l -0.319044,0.524087 h -2.832504 z"
           id="path1603" />
      </g>
    </clipPath>
    <clipPath
       clipPathUnits="userSpaceOnUse"
       id="clipPath1615">
      <rect
         style="display:none;fill:#0000ff;fill-opacity:0.225207;fill-rule:evenodd;stroke-width:1.82155"
         id="rect1617"
         width="98.752144"
         height="1.3167508"
         x="4.5718517"
         y="62.505322" />
      <path
         id="lpe_path-effect1619"
         style="fill:#0000ff;fill-opacity:0.225207;fill-rule:evenodd;stroke-width:1.82155"
         class="powerclip"
         d="M -0.30782351,-4.0002064 H 106.54486 V 92.552163 H -0.30782351 Z M 4.5718517,62.505322 v 1.31675 H 103.324 v -1.31675 z" />
    </clipPath>
    <clipPath
       clipPathUnits="userSpaceOnUse"
       id="clipath_lpe_path-effect1698">
      <rect
         style="display:none;fill:#0000ff;fill-opacity:0.225207;fill-rule:evenodd;stroke-width:1.82155"
         id="rect1700"
         width="98.752144"
         height="1.3167508"
         x="4.5718517"
         y="62.505322" />
      <path
         style="display:block;fill:#0000ff;fill-opacity:0.225207;fill-rule:evenodd;stroke-width:1.82155"
         class="powerclip"
         id="lpe_path-effect1698"
         d="M -0.30782351,-4.0002064 H 106.54486 V 92.55306 H -0.30782351 Z M 4.5718517,62.505322 v 1.31675 H 103.324 v -1.31675 z" />
    </clipPath>
    <clipPath
       clipPathUnits="userSpaceOnUse"
       id="clipPath1705">
      <g
         stroke="none"
         stroke-width="1"
         fill="none"
         fill-rule="evenodd"
         id="g1719"
         transform="matrix(0.57304831,0,0,0.54472967,23.452368,25.143677)"
         clip-path="url(#clipath_lpe_path-effect1698)"
         inkscape:path-effect="#path-effect1698">
        <g
           transform="translate(4)"
           fill="#47848f"
           id="g1717">
          <path
             d="M 36.223802,24.291112 C 22.04561,21.708789 10.829483,24.412981 6.3547534,32.163441 3.0150181,37.948032 3.9689771,45.611996 8.6630029,53.799205 9.0750512,54.51789 9.9916913,54.766468 10.710376,54.35442 11.429061,53.942372 11.677639,53.025731 11.265591,52.307047 7.0517455,44.957357 6.2324517,38.375274 8.9528296,33.663441 12.647175,27.264648 22.613989,24.861663 35.686245,27.242557 c 0.81502,0.148443 1.59606,-0.391925 1.744502,-1.206944 0.148442,-0.815019 -0.391925,-1.596059 -1.206945,-1.744501 z"
             id="path1707"
             sodipodi:nodetypes="sssssssss"
             inkscape:original-d="M 36.223802,24.291112 C 22.04561,21.708789 10.829483,24.412981 6.3547534,32.163441 3.0150181,37.948032 3.9689771,45.611996 8.6630029,53.799205 9.0750512,54.51789 9.9916913,54.766468 10.710376,54.35442 11.429061,53.942372 11.677639,53.025731 11.265591,52.307047 7.0517455,44.957357 6.2324517,38.375274 8.9528296,33.663441 12.647175,27.264648 22.613989,24.861663 35.686245,27.242557 c 0.81502,0.148443 1.59606,-0.391925 1.744502,-1.206944 0.148442,-0.815019 -0.391925,-1.596059 -1.206945,-1.744501 z" />
          <path
             d="M 87.50093,61.975107 C 96.78449,51.008031 100.02772,39.971713 95.562201,32.237201 92.27578,26.544953 85.333007,23.541767 76.111924,23.421846 c -0.828357,-0.01077 -1.508606,0.652011 -1.519379,1.480368 -0.01077,0.828357 0.65201,1.508606 1.480367,1.519379 8.264154,0.107476 14.216016,2.68203 16.891213,7.315608 3.686354,6.384953 0.805054,16.189656 -7.75297,26.299626 -0.535242,0.632304 -0.456557,1.578786 0.175747,2.114028 0.632304,0.535241 1.578787,0.456556 2.114028,-0.175748 z M 63.625451,24.774916 C 55.237047,26.572168 46.309016,30.085895 37.734931,35.036146 16.514922,47.287523 2.670597,65.355271 4.5952457,78.468993 4.7155419,79.28864 5.477516,79.855575 6.2971625,79.735279 7.1168089,79.614983 7.6837443,78.853009 7.5634481,78.033362 5.8612755,66.435496 18.961164,49.339286 39.234931,37.634222 c 8.309204,-4.797321 16.944721,-8.195926 25.019019,-9.92588 0.810043,-0.173555 1.326019,-0.97092 1.152464,-1.780963 -0.173556,-0.810043 -0.97092,-1.326018 -1.780963,-1.152463 z"
             id="path1709"
             inkscape:original-d="M 87.50093,61.975107 C 96.78449,51.008031 100.02772,39.971713 95.562201,32.237201 92.27578,26.544953 85.333007,23.541767 76.111924,23.421846 c -0.828357,-0.01077 -1.508606,0.652011 -1.519379,1.480368 -0.01077,0.828357 0.65201,1.508606 1.480367,1.519379 8.264154,0.107476 14.216016,2.68203 16.891213,7.315608 3.686354,6.384953 0.805054,16.189656 -7.75297,26.299626 -0.535242,0.632304 -0.456557,1.578786 0.175747,2.114028 0.632304,0.535241 1.578787,0.456556 2.114028,-0.175748 z M 63.625451,24.774916 C 55.237047,26.572168 46.309016,30.085895 37.734931,35.036146 16.514922,47.287523 2.670597,65.355271 4.5952457,78.468993 4.7155419,79.28864 5.477516,79.855575 6.2971625,79.735279 7.1168089,79.614983 7.6837443,78.853009 7.5634481,78.033362 5.8612755,66.435496 18.961164,49.339286 39.234931,37.634222 c 8.309204,-4.797321 16.944721,-8.195926 25.019019,-9.92588 0.810043,-0.173555 1.326019,-0.97092 1.152464,-1.780963 -0.173556,-0.810043 -0.97092,-1.326018 -1.780963,-1.152463 z" />
          <path
             d="m 29.237633,87.55306 c -49.442181,-89.1407616 -24.7210905,-44.570381 0,0 z m 44.37214,-2.649804 c 2.511106,-8.024546 3.859676,-17.280946 3.859676,-26.926376 0,-24.073121 -8.426657,-44.827952 -20.440635,-50.1625233 -0.757143,-0.3361943 -1.643467,0.00505 -1.979662,0.7621943 -0.336194,0.7571426 0.0051,1.643467 0.762195,1.979662 10.674517,4.73981 18.658102,24.403357 18.658102,47.420667 0,9.348282 -1.304603,18.302896 -3.722767,26.030434 -0.247408,0.790621 0.192954,1.632109 0.983574,1.879517 0.790621,0.247407 1.632109,-0.192954 1.879517,-0.983575 z"
             id="path1711"
             sodipodi:nodetypes="ccsssscssss"
             inkscape:original-d="m 29.237633,87.55306 c -49.442181,-89.1407616 -24.7210905,-44.570381 0,0 z m 44.37214,-2.649804 c 2.511106,-8.024546 3.859676,-17.280946 3.859676,-26.926376 0,-24.073121 -8.426657,-44.827952 -20.440635,-50.1625233 -0.757143,-0.3361943 -1.643467,0.00505 -1.979662,0.7621943 -0.336194,0.7571426 0.0051,1.643467 0.762195,1.979662 10.674517,4.73981 18.658102,24.403357 18.658102,47.420667 0,9.348282 -1.304603,18.302896 -3.722767,26.030434 -0.247408,0.790621 0.192954,1.632109 0.983574,1.879517 0.790621,0.247407 1.632109,-0.192954 1.879517,-0.983575 z" />
          <path
             d="m 50.97977,14.995252 c 3.864739,0 6.997729,-3.13299 6.997729,-6.9977291 0,-3.8647392 -3.13299,-6.99772933 -6.997729,-6.99772933 -3.864739,0 -6.997729,3.13299013 -6.997729,6.99772933 0,3.8647391 3.13299,6.9977291 6.997729,6.9977291 z m 0,-3 c -2.207885,0 -3.997729,-1.789844 -3.997729,-3.9977291 0,-2.2078849 1.789844,-3.9977293 3.997729,-3.9977293 2.207885,0 3.997729,1.7898444 3.997729,3.9977293 0,2.2078851 -1.789844,3.9977291 -3.997729,3.9977291 z"
             id="path1713"
             inkscape:original-d="m 50.97977,14.995252 c 3.864739,0 6.997729,-3.13299 6.997729,-6.9977291 0,-3.8647392 -3.13299,-6.99772933 -6.997729,-6.99772933 -3.864739,0 -6.997729,3.13299013 -6.997729,6.99772933 0,3.8647391 3.13299,6.9977291 6.997729,6.9977291 z m 0,-3 c -2.207885,0 -3.997729,-1.789844 -3.997729,-3.9977291 0,-2.2078849 1.789844,-3.9977293 3.997729,-3.9977293 2.207885,0 3.997729,1.7898444 3.997729,3.9977293 0,2.2078851 -1.789844,3.9977291 -3.997729,3.9977291 z" />
          <path
             d="m 52.041298,59.220138 c -2.714505,0.586517 -5.388838,-1.1386 -5.976503,-3.853105 -0.585369,-2.714505 1.1386,-5.388838 3.853106,-5.976503 2.714505,-0.586516 5.388838,1.1386 5.976502,3.853106 0.586517,2.714505 -1.1386,5.388838 -3.853105,5.976502 z"
             id="path1715"
             sodipodi:nodetypes="ccccc"
             inkscape:original-d="m 52.041298,59.220138 c -2.714505,0.586517 -5.388838,-1.1386 -5.976503,-3.853105 -0.585369,-2.714505 1.1386,-5.388838 3.853106,-5.976503 2.714505,-0.586516 5.388838,1.1386 5.976502,3.853106 0.586517,2.714505 -1.1386,5.388838 -3.853105,5.976502 z" />
        </g>
      </g>
    </clipPath>
    <clipPath
       clipPathUnits="userSpaceOnUse"
       id="clipPath464">
      <path
         id="path466"
         style="fill:#ff0000;fill-opacity:1;fill-rule:nonzero;stroke:none;stroke-width:1.78984"
         d="m 4.4164335,23.422016 v 44.789991 c 0.041166,-0.05693 0.1148245,-0.103519 0.1670016,-0.157766 -0.118873,-2.279393 0.1176341,-2.298403 1.6291716,-2.27679 0.1550829,-0.0033 0.3278903,-0.08927 0.4635281,-0.01083 0.069331,0.04046 -0.225269,0.219553 -0.1499699,0.193617 0.2810164,-0.09675 0.5253972,-0.286184 0.7941355,-0.415918 0.1663036,-0.08026 0.4989527,0.0255 0.6373546,-0.0753 0.033959,0.0031 0.2391963,0.04241 0.3817305,0.06455 0.00419,0.0022 0.0096,-0.0072 0.013611,-0.0037 l 0.00349,0.0037 c 0.3442398,0.05401 0.7765401,0.140418 0.8929771,0.250985 0.1942942,-0.0035 0.4758743,0.08296 0.6714373,0.154168 0.073694,0.05465 0.1444211,0.110275 0.2181311,0.164926 0.0442,-0.0026 0.0887,-0.0081 0.132921,-0.0072 0.06781,0.0013 0.134194,0.0241 0.201091,0.03585 0.202271,0.02273 0.123044,0.01634 0.235172,0.02509 0.860455,0.06768 1.0321,0.757712 0.60327,1.082818 0.276534,0.236339 0.34698,0.449518 0.231766,0.713514 0.04888,-0.06326 0.02401,-0.04219 0.09202,-0.125494 0.07853,-0.09618 -0.07573,0.266918 -0.197682,0.333452 -0.08701,0.162172 -0.179608,0.323041 -0.299931,0.555751 -0.396928,0.538502 -0.586104,0.962011 -0.852076,1.577617 -0.125731,0.291001 -0.4467368,1.264798 -0.8384437,1.333803 -0.2805924,0.04944 -0.5627379,0.01524 -0.8452604,-0.04303 -0.030155,0.146532 -0.063939,0.293678 -0.1431467,0.426674 -0.057273,0.09618 -0.1477711,0.161714 -0.2249479,0.240228 -2.478e-4,0.01487 -0.00384,0.04085 -0.00349,0.05379 0.028113,0.707793 0.031533,1.082184 0.017101,1.466467 0.7336921,0.693514 0.9010829,1.258385 0.9747765,1.319462 -0.2642378,0.659866 -0.7030891,1.77155 -1.1997243,1.99712 -0.145171,0.06594 -0.2182539,0.06157 -0.3408317,0.107558 0.046139,0.838023 0.4335184,1.656723 0.661213,2.430966 0.012913,0.04366 0.00942,0.07907 0.020452,0.121914 H 70.350173 c 0.190504,-0.05966 0.381942,-0.125127 0.572596,-0.08964 0.04342,0.0081 0.06427,0.05871 0.09544,0.08964 h 0.224948 c 0.168607,-0.155784 0.356963,-0.290515 0.562371,-0.319111 0.0157,-0.779596 0.04176,-1.559965 0.02728,-2.341327 0.289145,-0.900198 0.441282,-1.819267 0.606679,-2.742903 0.01902,-0.106181 0.311554,-1.1439 0.235173,-1.326633 0.0028,0.131093 0.01222,0.263294 0.0103,0.394405 -0.0086,0.563783 0.113952,-1.12182 0.136341,-1.685182 0.0026,-0.06411 -0.106326,0.227364 -0.09202,0.164925 1.170709,-5.126888 -0.202189,1.377658 0.596454,-2.470405 0.192038,-0.544097 0.276861,-0.852722 0.368096,-1.161701 -0.02914,-0.0709 -0.05685,-0.146549 -0.08521,-0.218716 -0.08908,0.0055 -0.178156,0.01487 -0.265847,0.03227 -0.04479,0.0088 -0.0875,0.07207 -0.126115,0.04661 -0.234544,-0.154609 -0.430455,-0.370716 -0.64417,-0.555751 0.04708,-0.08364 0.08673,-0.170433 0.143146,-0.2474 0.09385,-0.128027 0.200423,-0.245415 0.306749,-0.362134 0.158381,-0.173866 0.329831,-0.362361 0.521471,-0.516311 v -0.0037 c 0.007,-0.0215 0.04492,-0.07253 0.0409,-0.05019 -0.0023,0.01267 -0.0059,0.02353 -0.01361,0.03585 0.0045,-0.0037 0.0091,-0.0072 0.01361,-0.01083 0.02553,-0.04138 0.05085,-0.07879 0.09202,-0.08246 0.0037,-3.38e-4 0.0164,0.01065 0.02045,0.01083 0.15086,-0.100306 0.31019,-0.18364 0.487388,-0.21513 0.223562,-0.116131 0.415337,-0.242403 0.678254,-0.268912 0.176189,-0.01781 0.431857,0.200933 0.579412,0.279669 0.09674,0.05162 0.131419,0.120298 0.190866,0.182862 0.0164,-0.0018 0.03141,0.0053 0.04771,0.0037 l 0.0035,-0.0037 c 0.108665,-0.01874 0.193387,-0.03835 0.265849,-0.04661 -0.0738,-0.885595 -0.055,-1.531728 0.228358,-1.44854 0.151819,0.04457 0.377844,0.290346 0.70211,0.806736 0.578583,0.921391 1.301757,1.758498 1.734829,2.764417 0.142763,0.331594 -0.535412,1.768841 -0.650987,2.136953 -0.105873,0.476765 -0.214506,0.95385 -0.320381,1.430613 -0.06333,0.154205 -0.147545,0.299879 -0.187458,0.462528 -0.03799,0.154829 -0.03516,0.442313 -0.0409,0.68483 0.0033,0.03947 0.0065,0.07888 0.0103,0.118315 -0.04795,0.664003 -0.165675,1.239753 -0.286297,1.885971 -0.115557,0.619147 -0.210657,1.610422 -0.480572,2.187151 -0.04382,0.09362 -0.04712,-0.20003 -0.07158,-0.301181 0.01518,0.916974 0.0021,1.83431 -0.04431,2.750074 H 97.545034 V 23.422016 Z m 7.0211135,44.739795 c 0.0353,-0.06581 0.08038,-0.150056 0.105663,-0.20796 -0.08893,0.115122 -0.125958,0.161732 -0.170422,0.225887 l 0.0035,0.0037 c 0.0178,0.0123 0.03979,-0.0097 0.06136,-0.02151 z M 10.08104,66.089394 c -0.1062741,-0.01157 -0.4271249,0.0239 -0.3203799,0.02869 0.1155225,0.0053 0.2321095,-0.0062 0.3476459,-0.01432 -0.0094,-0.0035 -0.0171,-0.01322 -0.02728,-0.01432 z m -5.5248661,7.06701 c -0.032249,-0.0039 -0.065719,0.01852 -0.09884,0.07888 0.035093,-0.02023 0.067778,-0.0422 0.09884,-0.06455 -8.72e-5,-0.0048 8.73e-5,-0.0095 0,-0.01432 z M 4.41643,77.964551 v 1.785577 H 4.42324 C 4.471421,79.200437 4.482432,78.648727 4.498225,78.097215 4.466098,78.056225 4.431756,78.016145 4.416434,77.964543 Z" />
    </clipPath>
    <clipPath
       clipPathUnits="userSpaceOnUse"
       id="clipPath474">
      <path
         id="path476"
         style="fill:#ff0000;fill-opacity:1;fill-rule:nonzero;stroke:none;stroke-width:1.78984"
         d="M 0.69115248,7.6852818 V 87.552163 H 70.840943 c -0.09048,-0.107044 -0.202838,-0.193821 -0.276073,-0.315525 -0.09701,-0.02647 -0.196597,-0.03459 -0.293114,-0.06455 -4.254249,-1.319693 -3.647777,-5.249189 0.313563,-4.969494 -0.136795,-0.283913 -0.269693,-0.561231 -0.36128,-0.842591 -0.112469,-0.03541 -0.211122,-0.06341 -0.330606,-0.100398 -0.4157,-0.214503 -1.000188,-0.319738 -0.282889,-1.107917 0.02497,-0.02744 0.25141,0.0092 0.453304,0.03227 0.02162,-0.124116 0.04836,-0.248901 0.07158,-0.372891 0.26236,-0.05019 0.524733,-0.199501 0.78732,-0.150588 0.09259,0.01726 0.149097,0.100361 0.204497,0.190031 0.19171,-0.190342 0.424706,-0.383241 0.674845,-0.419503 0.0186,-0.779346 0.04527,-1.560247 0.03068,-2.341327 0.289144,-0.900198 0.441282,-1.819267 0.606678,-2.742903 0.01902,-0.106181 0.311555,-1.1439 0.235174,-1.326633 0.0028,0.131093 0.01221,0.263294 0.0103,0.394405 -0.0086,0.563781 0.113952,-1.12182 0.136341,-1.685182 0.0026,-0.06411 -0.106326,0.227364 -0.09202,0.164925 1.170709,-5.126888 -0.202187,1.377653 0.596454,-2.470405 0.192038,-0.544097 0.276861,-0.852722 0.368096,-1.161701 -0.02914,-0.0709 -0.05685,-0.14655 -0.08521,-0.218716 -0.08908,0.0055 -0.178157,0.01487 -0.265846,0.03227 -0.0448,0.0088 -0.0875,0.07207 -0.126115,0.04661 -0.234544,-0.154609 -0.430456,-0.370716 -0.644171,-0.555751 0.04708,-0.08364 0.08673,-0.170433 0.143147,-0.2474 0.09385,-0.128027 0.200423,-0.245415 0.306749,-0.362134 0.158381,-0.173866 0.329829,-0.362361 0.521471,-0.516311 v -0.0037 c 0.007,-0.0215 0.04492,-0.07253 0.0409,-0.05019 -0.0023,0.01267 -0.0059,0.02353 -0.01361,0.03585 0.0045,-0.0037 0.0091,-0.0072 0.01361,-0.01083 0.02553,-0.04138 0.05087,-0.07879 0.09202,-0.08246 0.0037,-3.38e-4 0.0164,0.01065 0.02045,0.01083 0.15086,-0.100306 0.310194,-0.183641 0.487388,-0.21513 0.223565,-0.116131 0.415337,-0.242403 0.678254,-0.268912 0.176189,-0.01781 0.431855,0.200933 0.579412,0.279669 0.09675,0.05162 0.13142,0.120298 0.190867,0.182862 0.0164,-0.0018 0.03141,0.0053 0.04771,0.0037 l 0.0035,-0.0037 c 0.108664,-0.01874 0.193387,-0.03835 0.265848,-0.04661 -0.0738,-0.885595 -0.055,-1.531728 0.228358,-1.44854 0.151819,0.04457 0.377846,0.290346 0.70211,0.806736 0.184845,0.294366 0.389451,0.578696 0.589638,0.864104 V 7.6852818 Z M 7.9576655,65.469105 c 0.033959,0.0031 0.2391858,0.04241 0.3817305,0.06455 0.00419,0.0022 0.0096,-0.0072 0.013611,-0.0037 l 0.00349,0.0037 c 0.3442397,0.05401 0.7765401,0.140418 0.8929771,0.250985 0.1942942,-0.0035 0.4758743,0.08296 0.6714372,0.154168 0.073694,0.05465 0.1444197,0.110275 0.2181317,0.164926 0.0442,-0.0026 0.0887,-0.0081 0.13292,-0.0072 0.06781,0.0013 0.134195,0.0241 0.201092,0.03585 0.20227,0.02273 0.123043,0.01634 0.235172,0.02509 0.860454,0.06768 1.032099,0.757712 0.60327,1.082818 0.276533,0.236339 0.346979,0.44952 0.231766,0.713513 0.04888,-0.06326 0.02401,-0.04219 0.09202,-0.125493 0.07853,-0.09618 -0.07573,0.266918 -0.197681,0.333452 -0.08701,0.162172 -0.17961,0.323041 -0.299931,0.555751 -0.396928,0.538502 -0.586104,0.962011 -0.852077,1.577617 -0.125731,0.291001 -0.4467363,1.264796 -0.8384433,1.333803 -0.2805924,0.04944 -0.5627379,0.01524 -0.8452603,-0.04303 -0.030155,0.146532 -0.063939,0.29368 -0.1431467,0.426674 -0.057273,0.09618 -0.1477712,0.161714 -0.2249479,0.240228 -2.478e-4,0.01487 -0.00384,0.04085 -0.00349,0.05379 0.028113,0.707793 0.031533,1.082184 0.017101,1.466467 0.7336921,0.693514 0.9010829,1.258385 0.9747765,1.319462 -0.2642378,0.659866 -0.7030891,1.77155 -1.1997244,1.99712 -0.145171,0.06594 -0.2182538,0.06157 -0.3408316,0.107558 0.046139,0.838023 0.4335184,1.656721 0.661213,2.430966 0.6285177,2.137205 -0.9473809,3.238748 -1.837079,1.713866 C 5.7766256,82.87045 4.0243126,82.381313 4.3892033,80.255632 4.5107288,79.547634 4.5034171,78.830315 4.511898,78.115091 4.3075854,77.886478 4.435168,77.448634 4.385783,77.12191 c -0.024378,0.0682 -0.00733,0.188402 -0.074985,0.204373 -0.062159,0.01469 -0.084583,-0.09941 -0.115889,-0.157766 -0.070605,-0.13157 -0.1797789,-0.257866 -0.1874571,-0.408748 -0.025897,-0.508241 -0.023227,-1.028648 0.088614,-1.523835 0.031987,-0.141648 0.1005849,-0.269688 0.1670016,-0.39799 -0.046314,-0.339396 0.00541,-0.781955 0.037484,-1.319462 -0.014309,0.01322 -0.031411,0.03697 -0.040904,0.01083 -0.081651,-0.231435 -0.01396,-0.495423 -0.020452,-0.742197 -0.01047,-0.402594 -0.021953,-0.805671 -0.030678,-1.208311 -0.035564,-1.637783 0.037309,-0.82583 -0.1397439,-2.190738 -0.031114,-0.129422 -0.2052026,-0.326652 -0.092017,-0.387233 0.071041,-0.03804 0.1488705,-0.06471 0.2215398,-0.100398 0.00244,-0.287589 0.1287675,-0.579752 0.3851385,-0.846176 -0.118873,-2.279389 0.1176341,-2.298399 1.6291716,-2.27679 0.1550829,-0.0033 0.3278868,-0.08927 0.4635281,-0.01083 0.069331,0.04046 -0.225269,0.219555 -0.1499699,0.193617 0.2810164,-0.09674 0.5253972,-0.286184 0.7941355,-0.415918 0.1663036,-0.08026 0.4989527,0.0255 0.6373546,-0.0753 z m 3.4798815,2.692706 c 0.0353,-0.06581 0.08038,-0.150056 0.105663,-0.20796 -0.08893,0.115122 -0.125958,0.161732 -0.170422,0.225887 l 0.0035,0.0037 c 0.0178,0.0123 0.03979,-0.0097 0.06136,-0.02151 z M 10.08104,66.089394 c -0.1062741,-0.01157 -0.4271249,0.0239 -0.3203799,0.02869 0.1155225,0.0053 0.2321095,-0.0062 0.3476459,-0.01432 -0.0094,-0.0035 -0.0171,-0.01322 -0.02728,-0.01432 z m 67.389062,6.303299 c -0.0031,0.0112 -0.01082,0.02086 -0.01361,0.03227 -0.03799,0.154829 -0.03516,0.442313 -0.0409,0.68483 0.0033,0.03947 0.0065,0.07888 0.0103,0.118315 -0.04795,0.664003 -0.165676,1.239753 -0.286297,1.885971 -0.115558,0.619147 -0.210658,1.610422 -0.480572,2.187151 -0.04382,0.09362 -0.04712,-0.20003 -0.07158,-0.301181 0.01864,1.127653 0.01344,2.25611 -0.07158,3.381121 -0.007,0.09298 -0.03459,-0.50195 -0.06816,-0.268913 -0.04232,0.329156 0.01256,-0.189349 0.224949,0.763711 0.09469,0.424961 0.210103,0.854299 0.211314,1.290778 8.69e-4,0.311874 -0.03654,0.61583 -0.08179,0.914301 0.228657,0.04081 0.444067,0.105667 0.668029,0.157766 z M 4.5561739,73.156404 c -0.032249,-0.0039 -0.065719,0.01852 -0.09884,0.07888 0.035093,-0.02023 0.067778,-0.0422 0.09884,-0.06455 -8.72e-5,-0.0048 8.73e-5,-0.0095 0,-0.01432 z" />
    </clipPath>
    <clipPath
       clipPathUnits="userSpaceOnUse"
       id="clipPath484">
      <path
         id="path486"
         style="fill:#ff0000;fill-opacity:1;fill-rule:nonzero;stroke:none"
         d="M 22.740234,59.910156 V 89.625 h 64.1875 V 59.910156 Z m 46.658204,0.544922 c 0.087,0.02428 0.216523,0.15816 0.402343,0.439453 0.331556,0.501909 0.74597,0.957907 0.994141,1.50586 0.08181,0.180631 -0.306817,0.963539 -0.373047,1.164062 -0.06067,0.259708 -0.122924,0.51959 -0.183594,0.779297 -0.03629,0.084 -0.08455,0.163353 -0.107422,0.251953 -0.02177,0.08434 -0.02015,0.240941 -0.02344,0.373047 0.0019,0.0215 0.0038,0.04297 0.0059,0.06445 -0.02748,0.361702 -0.09494,0.67533 -0.164062,1.027344 -0.06622,0.337268 -0.120717,0.877245 -0.275391,1.191406 -0.02511,0.051 -0.02701,-0.108962 -0.04102,-0.164062 0.01068,0.614266 0.0077,1.22897 -0.04102,1.841797 -0.004,0.05065 -0.01982,-0.273427 -0.03906,-0.146485 -0.02425,0.179301 0.0072,-0.103144 0.128907,0.416016 0.05426,0.231489 0.120399,0.465362 0.121093,0.703125 4.97e-4,0.169887 -0.02094,0.335462 -0.04687,0.498047 1.045681,0.177394 2.07007,0.531621 2.046875,1.367187 -0.01982,0.714162 -0.68347,1.255508 -1.02539,1.882813 -1.155534,0.175978 -0.961461,0.287356 -2.097656,-0.119141 -0.194014,-0.06941 -0.361942,-0.198219 -0.544922,-0.292969 -0.0031,-0.0016 -0.0058,-0.0019 -0.0098,-0.0039 0.04167,0.01489 0.07959,0.03345 0.09961,0.07031 0.02233,0.04116 -0.08947,0.02344 -0.134765,0.03516 -0.771366,0.189233 -1.540653,-0.09517 -1.908203,-0.675782 -0.05559,-0.01442 -0.11266,-0.01885 -0.167969,-0.03516 -2.43789,-0.718876 -2.090352,-2.859389 0.179687,-2.707031 -0.07839,-0.154656 -0.154547,-0.305719 -0.207031,-0.458984 -0.06445,-0.01929 -0.120983,-0.03454 -0.189453,-0.05469 -0.238216,-0.116846 -0.573156,-0.174177 -0.162109,-0.603515 0.01431,-0.01495 0.14407,0.005 0.259765,0.01758 0.01239,-0.06761 0.02771,-0.135584 0.04102,-0.203125 0.150345,-0.02734 0.300699,-0.108674 0.451172,-0.08203 0.05306,0.0094 0.08544,0.05467 0.117187,0.103516 0.109859,-0.103685 0.243377,-0.208763 0.386719,-0.228516 0.01066,-0.424533 0.02594,-0.849913 0.01758,-1.27539 0.165694,-0.490365 0.252876,-0.991009 0.347656,-1.494141 0.0109,-0.05784 0.178536,-0.623116 0.134766,-0.722656 0.0016,0.07141 0.007,0.143424 0.0059,0.214844 -0.0049,0.307109 0.0653,-0.611088 0.07813,-0.917969 0.0015,-0.03492 -0.06093,0.123852 -0.05273,0.08984 0.670873,-2.792768 -0.115863,0.75045 0.341797,-1.345703 0.110047,-0.296386 0.158655,-0.464503 0.210937,-0.632813 -0.0167,-0.03862 -0.03258,-0.07983 -0.04883,-0.119141 -0.05105,0.003 -0.102092,0.0081 -0.152343,0.01758 -0.02567,0.0048 -0.05014,0.03926 -0.07227,0.02539 -0.134405,-0.08422 -0.246672,-0.201938 -0.369141,-0.302734 0.02698,-0.04556 0.0497,-0.09284 0.08203,-0.134766 0.05378,-0.06974 0.114852,-0.133685 0.175782,-0.197265 0.09076,-0.09471 0.18901,-0.197391 0.298828,-0.28125 v -0.002 c 0.004,-0.01171 0.02574,-0.03951 0.02344,-0.02734 -0.0013,0.0069 -0.0034,0.01282 -0.0078,0.01953 0.0026,-0.002 0.0052,-0.0039 0.0078,-0.0059 0.01463,-0.02254 0.02917,-0.04292 0.05273,-0.04492 0.0021,-1.83e-4 0.0094,0.0058 0.01172,0.0059 0.08645,-0.05464 0.177754,-0.100035 0.279297,-0.117188 0.128111,-0.06326 0.238008,-0.132044 0.388672,-0.146484 0.100965,-0.0097 0.247473,0.109454 0.332031,0.152344 0.05544,0.02812 0.07531,0.06553 0.109376,0.09961 0.0094,-10e-4 0.018,0.0031 0.02734,0.002 l 0.002,-0.002 c 0.06227,-0.01021 0.11082,-0.02089 0.152344,-0.02539 -0.04229,-0.482407 -0.03152,-0.834378 0.13086,-0.789063 z m -39.09375,0.351563 c 0.01946,0.0017 0.13707,0.02313 0.21875,0.03516 0.0024,0.0012 0.0055,-0.0039 0.0078,-0.002 l 0.002,0.002 c 0.197266,0.02942 0.444995,0.07649 0.511719,0.136719 0.11134,-0.0019 0.272699,0.04519 0.384766,0.08398 0.04223,0.02977 0.08276,0.06007 0.125,0.08984 0.02533,-0.0014 0.05083,-0.0044 0.07617,-0.0039 0.03886,7.2e-4 0.0769,0.01313 0.115235,0.01953 0.115911,0.01238 0.07051,0.0089 0.134765,0.01367 0.493082,0.03687 0.591443,0.412748 0.345703,0.589843 0.158468,0.128741 0.198836,0.244866 0.132813,0.388672 0.02801,-0.03446 0.01376,-0.02298 0.05273,-0.06836 0.045,-0.05239 -0.0434,0.145398 -0.113281,0.181641 -0.04986,0.08834 -0.102925,0.17597 -0.171875,0.302734 -0.22746,0.293338 -0.335866,0.524036 -0.488281,0.859375 -0.07205,0.158517 -0.256002,0.688972 -0.480469,0.726562 -0.160793,0.02693 -0.322476,0.0083 -0.484375,-0.02344 -0.01728,0.07982 -0.03664,0.159976 -0.08203,0.232422 -0.03282,0.05239 -0.08468,0.08809 -0.128906,0.130859 -1.42e-4,0.0081 -0.0022,0.02226 -0.002,0.0293 0.01611,0.385556 0.01807,0.589498 0.0098,0.798828 0.420441,0.377778 0.516364,0.68548 0.558594,0.71875 -0.151421,0.359449 -0.402904,0.965016 -0.6875,1.087891 -0.08319,0.03592 -0.12507,0.03354 -0.195313,0.05859 0.02644,0.456491 0.248427,0.902465 0.378907,1.324219 0.360171,1.164199 -0.542895,1.764242 -1.052735,0.933594 -0.41783,0.832572 -1.42199,0.566125 -1.21289,-0.591797 0.06964,-0.385667 0.06545,-0.776412 0.07031,-1.166016 -0.117081,-0.124532 -0.04397,-0.363039 -0.07227,-0.541015 -0.01397,0.03715 -0.0042,0.102628 -0.04297,0.111328 -0.03562,0.008 -0.04847,-0.05415 -0.06641,-0.08594 -0.04046,-0.07168 -0.103022,-0.140467 -0.107422,-0.222657 -0.01484,-0.276854 -0.01331,-0.560335 0.05078,-0.830078 0.01833,-0.07716 0.05764,-0.146908 0.0957,-0.216797 -0.02654,-0.184879 0.0031,-0.425955 0.02148,-0.71875 -0.0082,0.0072 -0.018,0.02014 -0.02344,0.0059 -0.04679,-0.12607 -0.008,-0.269872 -0.01172,-0.404297 -0.006,-0.219305 -0.01258,-0.438872 -0.01758,-0.658203 -0.02038,-0.892145 0.02138,-0.449854 -0.08008,-1.19336 -0.01783,-0.07051 -0.117594,-0.177937 -0.05273,-0.210937 0.04071,-0.02072 0.08531,-0.03525 0.126953,-0.05469 0.0014,-0.156658 0.07379,-0.315808 0.220703,-0.460937 -0.06812,-1.24165 0.06741,-1.252008 0.933594,-1.240235 0.08887,-0.0018 0.187895,-0.04863 0.265624,-0.0059 0.03973,0.02204 -0.12909,0.119599 -0.08594,0.105469 0.161036,-0.0527 0.301078,-0.155893 0.455078,-0.226563 0.0953,-0.04372 0.285922,0.01389 0.365235,-0.04102 z m 1.99414,1.466797 c 0.02023,-0.03585 0.04606,-0.08174 0.06055,-0.113282 -0.05096,0.06271 -0.07218,0.0881 -0.09766,0.123047 l 0.002,0.002 c 0.0102,0.0067 0.02282,-0.0053 0.03516,-0.01172 z m -0.777344,-1.128907 c -0.0609,-0.0063 -0.244763,0.01302 -0.183593,0.01563 0.0662,0.0029 0.13301,-0.0034 0.199218,-0.0078 -0.0054,-0.0019 -0.0098,-0.0072 -0.01563,-0.0078 z m -3.166015,3.84961 c -0.01848,-0.0021 -0.03766,0.01009 -0.05664,0.04297 0.02011,-0.01102 0.03884,-0.02301 0.05664,-0.03516 -5e-5,-0.0026 5e-5,-0.0052 0,-0.0078 z" />
    </clipPath>
    <clipPath
       clipPathUnits="userSpaceOnUse"
       id="clipath_lpe_path-effect1117">
      <rect
         style="display:none;fill:#0000ff;fill-opacity:0.225207;fill-rule:evenodd;stroke-width:1.82155"
         id="rect1119"
         width="98.752144"
         height="1.3167508"
         x="4.5718517"
         y="62.505322" />
      <path
         id="lpe_path-effect1117"
         style="fill:#0000ff;fill-opacity:0.225207;fill-rule:evenodd;stroke-width:1.82155"
         class="powerclip"
         d="M -0.30782351,-4.0002064 H 106.54486 V 92.552163 H -0.30782351 Z M 4.5718517,62.505322 v 1.31675 H 103.324 v -1.31675 z" />
    </clipPath>
  </defs>
  <circle
     style="opacity:1;mix-blend-mode:normal;fill:#2e2e2e;fill-opacity:1;stroke:#00848f;stroke-width:2.47015;stroke-miterlimit:4;stroke-dasharray:none;stroke-opacity:0.0168438"
     id="path44"
     cx="55"
     cy="55"
     r="52.415424" />
  <g
     id="g1115"
     transform="matrix(0.95715172,0,0,0.95715172,2.3495286,-0.18575659)"
     style="fill:#ececec">
    <g
       stroke="none"
       stroke-width="1"
       fill="none"
       fill-rule="evenodd"
       id="g1109"
       transform="matrix(0.57304831,0,0,0.54472967,23.452368,25.143677)"
       clip-path="url(#clipath_lpe_path-effect1117)"
       inkscape:path-effect="#path-effect1117"
       style="fill:#ececec">
      <g
         transform="translate(4)"
         fill="#47848f"
         id="g1107"
         style="fill:#ececec">
        <path
           d="M 36.223802,24.291112 C 22.04561,21.708789 10.829483,24.412981 6.3547534,32.163441 3.0150181,37.948032 3.9689771,45.611996 8.6630029,53.799205 9.0750512,54.51789 9.9916913,54.766468 10.710376,54.35442 11.429061,53.942372 11.677639,53.025731 11.265591,52.307047 7.0517455,44.957357 6.2324517,38.375274 8.9528296,33.663441 12.647175,27.264648 22.613989,24.861663 35.686245,27.242557 c 0.81502,0.148443 1.59606,-0.391925 1.744502,-1.206944 0.148442,-0.815019 -0.391925,-1.596059 -1.206945,-1.744501 z"
           id="path1097"
           sodipodi:nodetypes="sssssssss"
           inkscape:original-d="M 36.223802,24.291112 C 22.04561,21.708789 10.829483,24.412981 6.3547534,32.163441 3.0150181,37.948032 3.9689771,45.611996 8.6630029,53.799205 9.0750512,54.51789 9.9916913,54.766468 10.710376,54.35442 11.429061,53.942372 11.677639,53.025731 11.265591,52.307047 7.0517455,44.957357 6.2324517,38.375274 8.9528296,33.663441 12.647175,27.264648 22.613989,24.861663 35.686245,27.242557 c 0.81502,0.148443 1.59606,-0.391925 1.744502,-1.206944 0.148442,-0.815019 -0.391925,-1.596059 -1.206945,-1.744501 z"
           style="fill:#ececec" />
        <path
           d="M 87.50093,61.975107 C 96.78449,51.008031 100.02772,39.971713 95.562201,32.237201 92.27578,26.544953 85.333007,23.541767 76.111924,23.421846 c -0.828357,-0.01077 -1.508606,0.652011 -1.519379,1.480368 -0.01077,0.828357 0.65201,1.508606 1.480367,1.519379 8.264154,0.107476 14.216016,2.68203 16.891213,7.315608 3.686354,6.384953 0.805054,16.189656 -7.75297,26.299626 -0.535242,0.632304 -0.456557,1.578786 0.175747,2.114028 0.632304,0.535241 1.578787,0.456556 2.114028,-0.175748 z M 63.625451,24.774916 C 55.237047,26.572168 46.309016,30.085895 37.734931,35.036146 16.514922,47.287523 2.670597,65.355271 4.5952457,78.468993 4.7155419,79.28864 5.477516,79.855575 6.2971625,79.735279 7.1168089,79.614983 7.6837443,78.853009 7.5634481,78.033362 5.8612755,66.435496 18.961164,49.339286 39.234931,37.634222 c 8.309204,-4.797321 16.944721,-8.195926 25.019019,-9.92588 0.810043,-0.173555 1.326019,-0.97092 1.152464,-1.780963 -0.173556,-0.810043 -0.97092,-1.326018 -1.780963,-1.152463 z"
           id="path1099"
           inkscape:original-d="M 87.50093,61.975107 C 96.78449,51.008031 100.02772,39.971713 95.562201,32.237201 92.27578,26.544953 85.333007,23.541767 76.111924,23.421846 c -0.828357,-0.01077 -1.508606,0.652011 -1.519379,1.480368 -0.01077,0.828357 0.65201,1.508606 1.480367,1.519379 8.264154,0.107476 14.216016,2.68203 16.891213,7.315608 3.686354,6.384953 0.805054,16.189656 -7.75297,26.299626 -0.535242,0.632304 -0.456557,1.578786 0.175747,2.114028 0.632304,0.535241 1.578787,0.456556 2.114028,-0.175748 z M 63.625451,24.774916 C 55.237047,26.572168 46.309016,30.085895 37.734931,35.036146 16.514922,47.287523 2.670597,65.355271 4.5952457,78.468993 4.7155419,79.28864 5.477516,79.855575 6.2971625,79.735279 7.1168089,79.614983 7.6837443,78.853009 7.5634481,78.033362 5.8612755,66.435496 18.961164,49.339286 39.234931,37.634222 c 8.309204,-4.797321 16.944721,-8.195926 25.019019,-9.92588 0.810043,-0.173555 1.326019,-0.97092 1.152464,-1.780963 -0.173556,-0.810043 -0.97092,-1.326018 -1.780963,-1.152463 z"
           clip-path="url(#clipPath464)"
           style="fill:#ececec" />
        <path
           d="m 29.237633,87.55306 c -49.442181,-89.1407616 -24.7210905,-44.570381 0,0 z m 44.37214,-2.649804 c 2.511106,-8.024546 3.859676,-17.280946 3.859676,-26.926376 0,-24.073121 -8.426657,-44.827952 -20.440635,-50.1625233 -0.757143,-0.3361943 -1.643467,0.00505 -1.979662,0.7621943 -0.336194,0.7571426 0.0051,1.643467 0.762195,1.979662 10.674517,4.73981 18.658102,24.403357 18.658102,47.420667 0,9.348282 -1.304603,18.302896 -3.722767,26.030434 -0.247408,0.790621 0.192954,1.632109 0.983574,1.879517 0.790621,0.247407 1.632109,-0.192954 1.879517,-0.983575 z"
           id="path1101"
           sodipodi:nodetypes="ccsssscssss"
           inkscape:original-d="m 29.237633,87.55306 c -49.442181,-89.1407616 -24.7210905,-44.570381 0,0 z m 44.37214,-2.649804 c 2.511106,-8.024546 3.859676,-17.280946 3.859676,-26.926376 0,-24.073121 -8.426657,-44.827952 -20.440635,-50.1625233 -0.757143,-0.3361943 -1.643467,0.00505 -1.979662,0.7621943 -0.336194,0.7571426 0.0051,1.643467 0.762195,1.979662 10.674517,4.73981 18.658102,24.403357 18.658102,47.420667 0,9.348282 -1.304603,18.302896 -3.722767,26.030434 -0.247408,0.790621 0.192954,1.632109 0.983574,1.879517 0.790621,0.247407 1.632109,-0.192954 1.879517,-0.983575 z"
           clip-path="url(#clipPath474)"
           style="fill:#ececec" />
        <path
           d="m 50.97977,14.995252 c 3.864739,0 6.997729,-3.13299 6.997729,-6.9977291 0,-3.8647392 -3.13299,-6.99772933 -6.997729,-6.99772933 -3.864739,0 -6.997729,3.13299013 -6.997729,6.99772933 0,3.8647391 3.13299,6.9977291 6.997729,6.9977291 z m 0,-3 c -2.207885,0 -3.997729,-1.789844 -3.997729,-3.9977291 0,-2.2078849 1.789844,-3.9977293 3.997729,-3.9977293 2.207885,0 3.997729,1.7898444 3.997729,3.9977293 0,2.2078851 -1.789844,3.9977291 -3.997729,3.9977291 z"
           id="path1103"
           inkscape:original-d="m 50.97977,14.995252 c 3.864739,0 6.997729,-3.13299 6.997729,-6.9977291 0,-3.8647392 -3.13299,-6.99772933 -6.997729,-6.99772933 -3.864739,0 -6.997729,3.13299013 -6.997729,6.99772933 0,3.8647391 3.13299,6.9977291 6.997729,6.9977291 z m 0,-3 c -2.207885,0 -3.997729,-1.789844 -3.997729,-3.9977291 0,-2.2078849 1.789844,-3.9977293 3.997729,-3.9977293 2.207885,0 3.997729,1.7898444 3.997729,3.9977293 0,2.2078851 -1.789844,3.9977291 -3.997729,3.9977291 z"
           style="fill:#ececec" />
        <path
           d="m 52.041298,59.220138 c -2.714505,0.586517 -5.388838,-1.1386 -5.976503,-3.853105 -0.585369,-2.714505 1.1386,-5.388838 3.853106,-5.976503 2.714505,-0.586516 5.388838,1.1386 5.976502,3.853106 0.586517,2.714505 -1.1386,5.388838 -3.853105,5.976502 z"
           id="path1105"
           sodipodi:nodetypes="ccccc"
           inkscape:original-d="m 52.041298,59.220138 c -2.714505,0.586517 -5.388838,-1.1386 -5.976503,-3.853105 -0.585369,-2.714505 1.1386,-5.388838 3.853106,-5.976503 2.714505,-0.586516 5.388838,1.1386 5.976502,3.853106 0.586517,2.714505 -1.1386,5.388838 -3.853105,5.976502 z"
           style="fill:#ececec" />
      </g>
    </g>
    <rect
       style="fill:#ececec;fill-rule:evenodd"
       id="rect1111"
       width="0.0098618269"
       height="0.052762806"
       x="49.959682"
       y="59.807018" />
    <path
       style="fill:#ececec;stroke:#ececec;stroke-width:1.686;stroke-linecap:round;stroke-linejoin:round;stroke-miterlimit:3.9;stroke-dasharray:none;stroke-opacity:1;opacity:0.99900002;fill-opacity:0.02921215"
       d="M 86.084992,88.52766 V 60.752453 H 23.582447 V 88.78116 Z"
       id="path1113"
       sodipodi:nodetypes="ccccc" />
  </g>
</svg>
